<svg width="132" height="140" viewBox="0 0 132 140" fill="none" xmlns="http://www.w3.org/2000/svg">
<g filter="url(#filter0_d_1_81)">
<circle cx="66" cy="66" r="66" fill="#147493"/>
<circle cx="66" cy="66" r="51" fill="#147493" stroke="#68A4CF" stroke-width="2"/>
<path fill-rule="evenodd" clip-rule="evenodd" d="M55 36C55.4304 36 55.8126 36.2754 55.9487 36.6838L57.7208 42H63C63.4247 42 63.8031 42.2682 63.9436 42.669C64.0842 43.0697 63.9563 43.5156 63.6247 43.7809L59.1692 47.3453L60.9487 52.6838C61.0888 53.1042 60.9355 53.5668 60.572 53.8203C60.2084 54.0738 59.7214 54.0577 59.3753 53.7809L55 50.2806L50.6247 53.7809C50.2817 54.0552 49.7999 54.0737 49.437 53.8264C49.074 53.5791 48.9149 53.124 49.0447 52.7044L50.7577 47.1681L46.3885 43.7912C46.05 43.5296 45.9154 43.0817 46.0536 42.6769C46.1918 42.2721 46.5722 42 47 42H52.2792L54.0513 36.6838C54.1874 36.2754 54.5696 36 55 36ZM94 65C94 50.0883 81.9117 38 67 38V36C83.0158 36 95.9992 48.9829 96 64.9984C96.0092 70.9258 94.1941 76.7124 90.8009 81.5725L89.1611 80.4275C92.3192 75.9041 94.0086 70.5183 94 65.0016V65ZM55 40.1623L53.9487 43.3162C53.8126 43.7246 53.4304 44 53 44H49.9291L52.5295 46.0098C52.8596 46.2649 52.9966 46.6981 52.8733 47.0966L51.9177 50.1852L54.3753 48.2191C54.7405 47.927 55.2595 47.927 55.6247 48.2191L57.9805 50.1038L57.0513 47.3162C56.9188 46.9188 57.0482 46.4809 57.3753 46.2191L60.1492 44H57C56.5696 44 56.1874 43.7246 56.0513 43.3162L55 40.1623ZM69 44C69 42.8954 69.8954 42 71 42C72.1046 42 73 42.8954 73 44C73 45.1046 72.1046 46 71 46C69.8954 46 69 45.1046 69 44ZM80 50C80 48.8954 80.8954 48 82 48C83.1046 48 84 48.8954 84 50C84 51.1046 83.1046 52 82 52C80.8954 52 80 51.1046 80 50ZM44.8389 49.5725C41.6804 54.0957 39.991 59.4816 40 64.9984L40 65.0016C39.9907 70.8511 41.8896 76.5335 45.3923 81.1935L48.2548 78.331C45.4846 74.4457 43.9925 69.7849 44 64.9984L46 65.0016C45.9933 69.2578 47.2859 73.4052 49.6907 76.8951L64.2929 62.2929C64.6834 61.9024 65.3166 61.9024 65.7071 62.2929L69.7071 66.2929C70.0976 66.6834 70.0976 67.3166 69.7071 67.7071L50.8073 86.6081C55.4672 90.1103 61.1492 92.009 66.9985 92L67.0015 94C60.6223 94.0098 54.4283 91.9077 49.3799 88.0356L37.7091 99.7071C37.3187 100.098 36.6856 100.098 36.2951 99.7073L32.2931 95.7073C32.1055 95.5198 32 95.2654 32 95.0001C32 94.7349 32.1053 94.4805 32.2929 94.2929L43.965 82.6208C40.0926 77.5729 37.9902 71.379 38 65.0001C37.9906 59.0731 39.8058 53.287 43.1991 48.4275L44.8389 49.5725ZM67 52H65V50H67V52ZM73.2929 53.2929C73.6834 52.9024 74.3166 52.9024 74.7071 53.2929L78.7071 57.2929C79.0976 57.6834 79.0976 58.3166 78.7071 58.7071L71.7071 65.7071L70.2929 64.2929L76.5858 58L74 55.4142L67.7071 61.7071L66.2929 60.2929L73.2929 53.2929ZM88 64.9984C88.0059 61.3149 87.038 57.6954 85.1943 54.5065L86.9257 53.5055C88.9459 56.9995 90.0065 60.9656 90 65.0016L88 64.9984ZM53 58C53 56.8954 53.8954 56 55 56C56.1046 56 57 56.8954 57 58C57 59.1046 56.1046 60 55 60C53.8954 60 53 59.1046 53 58ZM46 63H44V61H46V63ZM34.4144 94.9998L37.0018 97.5859L67.5858 67L65 64.4142L34.4144 94.9998ZM56 63V65H54V63H56ZM80 65C80 63.8954 80.8954 63 82 63C83.1046 63 84 63.8954 84 65C84 66.1046 83.1046 67 82 67C80.8954 67 80 66.1046 80 65ZM84 73C84 71.8954 84.8954 71 86 71C87.1046 71 88 71.8954 88 73C88 74.1046 87.1046 75 86 75C84.8954 75 84 74.1046 84 73ZM79 73V75H77V73H79ZM67 77C67 75.8954 67.8954 75 69 75C70.1046 75 71 75.8954 71 77C71 78.1046 70.1046 79 69 79C67.8954 79 67 78.1046 67 77ZM78 78C78.4304 78 78.8126 78.2754 78.9487 78.6838L80.7208 84H86C86.4247 84 86.8031 84.2682 86.9436 84.669C87.0842 85.0697 86.9563 85.5156 86.6247 85.7809L82.1692 89.3453L83.9487 94.6838C84.0888 95.1042 83.9355 95.5668 83.572 95.8203C83.2084 96.0738 82.7214 96.0577 82.3753 95.7809L78 92.2806L73.6247 95.7809C73.2817 96.0552 72.7999 96.0737 72.437 95.8264C72.074 95.5791 71.9149 95.124 72.0447 94.7044L73.7577 89.1681L69.3885 85.7912C69.05 85.5296 68.9154 85.0817 69.0536 84.6769C69.1918 84.2721 69.5722 84 70 84H75.2792L77.0513 78.6838C77.1874 78.2754 77.5696 78 78 78ZM78 82.1623L76.9487 85.3162C76.8126 85.7246 76.4304 86 76 86H72.9291L75.5295 88.0098C75.8596 88.2649 75.9966 88.6981 75.8733 89.0966L74.9177 92.1852L77.3753 90.2191C77.7405 89.927 78.2595 89.927 78.6247 90.2191L80.9805 92.1038L80.0513 89.3162C79.9188 88.9188 80.0482 88.4809 80.3753 88.2191L83.1492 86H80C79.5696 86 79.1874 85.7246 79.0513 85.3162L78 82.1623ZM65 86H63V84H65V86Z" fill="#68A4CF"/>
</g>
<defs>
<filter id="filter0_d_1_81" x="0" y="0" width="132" height="140" filterUnits="userSpaceOnUse" color-interpolation-filters="sRGB">
<feFlood flood-opacity="0" result="BackgroundImageFix"/>
<feColorMatrix in="SourceAlpha" type="matrix" values="0 0 0 0 0 0 0 0 0 0 0 0 0 0 0 0 0 0 127 0" result="hardAlpha"/>
<feOffset dy="8"/>
<feColorMatrix type="matrix" values="0 0 0 0 0.0565104 0 0 0 0 0.344503 0 0 0 0 0.4375 0 0 0 1 0"/>
<feBlend mode="normal" in2="BackgroundImageFix" result="effect1_dropShadow_1_81"/>
<feBlend mode="normal" in="SourceGraphic" in2="effect1_dropShadow_1_81" result="shape"/>
</filter>
</defs>
</svg>
