<svg width="214" height="64" viewBox="0 0 214 64" fill="none" xmlns="http://www.w3.org/2000/svg">
<path fill-rule="evenodd" clip-rule="evenodd" d="M32 2C15.4313 2 2 15.4313 2 32C2 40.6874 5.69248 48.5122 11.5936 53.9908C12.557 53.0443 13.7954 52 15.997 52C18.4115 52 19.6673 53.2566 20.6723 54.2622L20.7031 54.293C21.6923 55.2826 22.4349 56 23.994 56C25.5549 56 26.2983 55.2823 27.2882 54.2928L27.3189 54.262C28.3247 53.2563 29.5812 52 31.997 52C34.4127 52 35.669 53.2563 36.6746 54.2619L36.7055 54.2928C37.6952 55.2822 38.4385 56 40 56V58C37.5843 58 36.328 56.7437 35.3224 55.7381L35.2915 55.7072C34.3018 54.7178 33.5585 54 31.997 54C30.4355 54 29.6919 54.7179 28.7021 55.7072L28.6709 55.7384C27.6653 56.7439 26.4091 58 23.994 58C21.5802 58 20.3246 56.7436 19.3199 55.7382L19.2886 55.707C18.2995 54.7175 17.5567 54 15.997 54C14.656 54 13.9187 54.53 13.1098 55.3072C18.2671 59.4922 24.8406 62 32 62C45.9928 62 57.748 52.4203 61.0648 39.4614C61.5397 35.8061 60.9829 33.7759 60.0245 32.6473C59.0409 31.4889 57.3951 31 55.0605 31C52.7688 31 50.0767 31.4679 47.2132 31.9656L47.1002 31.9852C44.2418 32.482 41.2271 33 38.5 33C29.8479 33 24 25.9637 24 17.5H26C26 25.0523 31.1361 31 38.5 31C41.0229 31 43.8617 30.518 46.7577 30.0148C46.8305 30.0021 46.9033 29.9895 46.9762 29.9768C49.7555 29.4935 52.5935 29 55.0605 29C57.5794 29 59.9853 29.5111 61.5491 31.3527C61.711 31.5435 61.8614 31.7454 62 31.9588C61.9992 28.3357 61.3409 24.7426 60.0569 21.3544L61.9271 20.6456C63.3019 24.2735 64.0044 28.1215 64 32.0011C63.9999 34.7071 63.664 37.3346 63.0316 39.8442C63.0182 39.9434 63.0042 40.0433 62.9896 40.144L62.9558 40.1391C59.3553 53.8704 46.8608 64 32 64C24.2688 64 17.1779 61.2584 11.6467 56.6943C10.7845 57.3982 9.66828 58 7.997 58C5.58321 58 4.32762 56.7436 3.32287 55.7382L3.29164 55.707C2.30252 54.7175 1.55971 54 0 54V52C2.41453 52 3.67034 53.2566 4.67528 54.2622L4.70611 54.293C5.69535 55.2826 6.43787 56 7.997 56C8.91349 56 9.54802 55.7524 10.1161 55.3476C3.88985 49.5093 0 41.209 0 32C0 14.3267 14.3267 0 32 0C43.1948 0 53.0467 5.74943 58.7638 14.4519L57.0922 15.5501C53.8604 10.6305 49.2219 6.71945 43.7495 4.38796C42.9678 4.22062 41.546 4 39.5 4C34.5425 4 30.2083 6.6711 27.8596 10.6585L26.1364 9.64348C28.3226 5.93174 32.0129 3.20949 36.3707 2.31605C34.9439 2.10781 33.4845 2 32 2ZM0 5H2V7H0V5ZM0 9H2V11H0V9ZM40 13C37.7909 13 36 14.7909 36 17C36 19.2091 37.7909 21 40 21C42.2091 21 44 19.2091 44 17C44 14.7909 42.2091 13 40 13ZM34 17C34 13.6863 36.6863 11 40 11C43.3137 11 46 13.6863 46 17C46 20.3137 43.3137 23 40 23C36.6863 23 34 20.3137 34 17ZM17 12H19V14H17V12ZM9 18H11V20H9V18ZM51 22H53V24H51V22ZM12 30C12 28.8954 12.8954 28 14 28C15.1046 28 16 28.8954 16 30C16 31.1046 15.1046 32 14 32C12.8954 32 12 31.1046 12 30ZM23 37V35H25V37H23ZM47 41C47 38.7909 48.7909 37 51 37C53.2091 37 55 38.7909 55 41C55 43.2091 53.2091 45 51 45C48.7909 45 47 43.2091 47 41ZM39 42V40H41V42H39ZM12 42H14V44H12V42ZM22 49C22 47.8954 22.8954 47 24 47C25.1046 47 26 47.8954 26 49C26 50.1046 25.1046 51 24 51C22.8954 51 22 50.1046 22 49ZM44 51H46V53H44V51ZM0 60H2V62H0V60ZM62 62V60H64V62H62Z" fill="white"/>
<g filter="url(#filter0_d_9_96)">
<path d="M101.216 50C100.803 50 100.596 49.7933 100.596 49.38V29.23C99.5627 28.9407 98.6947 28.548 97.992 28.052C97.3307 27.5147 97 26.8533 97 26.068C97 25.448 97.3513 24.952 98.054 24.58C98.798 24.208 99.6453 23.96 100.596 23.836V7.84C100.596 7.42666 100.803 7.22 101.216 7.22H108.47C111.157 7.22 113.203 8.23266 114.608 10.258C116.055 12.2833 116.778 14.8873 116.778 18.07C116.778 20.2193 116.323 22.1413 115.414 23.836C114.546 25.5307 113.327 26.8947 111.756 27.928C113.575 29.9533 114.918 32.7227 115.786 36.236L119.01 49.256C119.093 49.5453 119.031 49.752 118.824 49.876C118.617 49.9587 118.452 50 118.328 50C117.997 50 117.791 49.8347 117.708 49.504L114.484 36.484C113.657 33.0533 112.376 30.408 110.64 28.548C108.987 29.3747 107.168 29.788 105.184 29.788C104.027 29.788 102.931 29.7053 101.898 29.54V49.38C101.898 49.7933 101.671 50 101.216 50ZM108.47 8.522H101.898V23.774C105.577 23.774 108.573 24.8487 110.888 26.998C112.252 26.13 113.347 24.952 114.174 23.464C115.001 21.9347 115.414 20.1367 115.414 18.07C115.414 15.3833 114.856 13.1307 113.74 11.312C112.624 9.452 110.867 8.522 108.47 8.522ZM105.184 28.61C106.796 28.61 108.305 28.3 109.71 27.68C107.643 25.944 105.039 25.076 101.898 25.076V28.238C103.055 28.486 104.151 28.61 105.184 28.61ZM98.302 26.13C98.302 26.502 98.5087 26.8327 98.922 27.122C99.3767 27.4113 99.9347 27.6593 100.596 27.866V25.138C99.976 25.1793 99.4387 25.2827 98.984 25.448C98.5293 25.6133 98.302 25.8407 98.302 26.13ZM128.365 50.31C126.959 50.31 125.699 49.6693 124.583 48.388C123.508 47.0653 122.661 45.2673 122.041 42.994C121.462 40.7207 121.173 38.1167 121.173 35.182C121.173 32.2473 121.462 29.6433 122.041 27.37C122.661 25.0967 123.487 23.3193 124.521 22.038C125.595 20.7567 126.835 20.116 128.241 20.116C129.522 20.116 130.617 20.6533 131.527 21.728C132.477 22.7613 133.201 24.208 133.697 26.068C134.234 27.8867 134.503 29.974 134.503 32.33C134.503 32.9913 134.172 33.322 133.511 33.322H122.599C122.557 33.942 122.537 34.562 122.537 35.182C122.537 37.8273 122.785 40.204 123.281 42.312C123.777 44.3787 124.459 46.0113 125.327 47.21C126.236 48.4087 127.249 49.008 128.365 49.008C129.439 49.008 130.349 48.5533 131.093 47.644C131.878 46.7347 132.498 45.536 132.953 44.048C133.077 43.676 133.304 43.49 133.635 43.49C133.924 43.49 134.11 43.614 134.193 43.862C134.275 44.0687 134.275 44.296 134.193 44.544C133.614 46.3213 132.849 47.7267 131.899 48.76C130.948 49.7933 129.77 50.31 128.365 50.31ZM128.241 21.418C126.835 21.418 125.616 22.41 124.583 24.394C123.591 26.378 122.95 28.92 122.661 32.02H133.201C133.118 29.0027 132.622 26.4813 131.713 24.456C130.845 22.4307 129.687 21.418 128.241 21.418ZM143.316 50C142.986 50 142.779 49.8347 142.696 49.504L135.752 21.232C135.711 21.0253 135.752 20.8393 135.876 20.674C136 20.5087 136.166 20.426 136.372 20.426C136.703 20.426 136.91 20.5913 136.992 20.922L143.378 46.9L149.702 20.922C149.785 20.5913 149.992 20.426 150.322 20.426C150.529 20.426 150.694 20.5087 150.818 20.674C150.984 20.8393 151.025 21.0253 150.942 21.232L143.998 49.504C143.874 49.8347 143.647 50 143.316 50ZM160.004 50.31C158.599 50.31 157.338 49.6693 156.222 48.388C155.147 47.0653 154.3 45.2673 153.68 42.994C153.101 40.7207 152.812 38.1167 152.812 35.182C152.812 32.2473 153.101 29.6433 153.68 27.37C154.3 25.0967 155.127 23.3193 156.16 22.038C157.235 20.7567 158.475 20.116 159.88 20.116C161.161 20.116 162.257 20.6533 163.166 21.728C164.117 22.7613 164.84 24.208 165.336 26.068C165.873 27.8867 166.142 29.974 166.142 32.33C166.142 32.9913 165.811 33.322 165.15 33.322H154.238C154.197 33.942 154.176 34.562 154.176 35.182C154.176 37.8273 154.424 40.204 154.92 42.312C155.416 44.3787 156.098 46.0113 156.966 47.21C157.875 48.4087 158.888 49.008 160.004 49.008C161.079 49.008 161.988 48.5533 162.732 47.644C163.517 46.7347 164.137 45.536 164.592 44.048C164.716 43.676 164.943 43.49 165.274 43.49C165.563 43.49 165.749 43.614 165.832 43.862C165.915 44.0687 165.915 44.296 165.832 44.544C165.253 46.3213 164.489 47.7267 163.538 48.76C162.587 49.7933 161.409 50.31 160.004 50.31ZM159.88 21.418C158.475 21.418 157.255 22.41 156.222 24.394C155.23 26.378 154.589 28.92 154.3 32.02H164.84C164.757 29.0027 164.261 26.4813 163.352 24.456C162.484 22.4307 161.327 21.418 159.88 21.418ZM170.492 50C170.078 50 169.872 49.7933 169.872 49.38V21.046C169.872 20.6327 170.078 20.426 170.492 20.426C170.946 20.426 171.174 20.6327 171.174 21.046V23.526C172 22.286 172.889 21.418 173.84 20.922C174.79 20.3847 175.824 20.116 176.94 20.116C180.37 20.116 182.086 22.5547 182.086 27.432C182.086 27.928 181.879 28.176 181.466 28.176C181.011 28.176 180.784 27.928 180.784 27.432C180.784 25.2 180.453 23.65 179.792 22.782C179.13 21.8727 178.18 21.418 176.94 21.418C175.658 21.418 174.522 21.8107 173.53 22.596C172.579 23.34 171.794 24.2907 171.174 25.448V49.38C171.174 49.7933 170.946 50 170.492 50ZM189.547 50C187.894 50 186.447 49.442 185.207 48.326C184.008 47.21 183.285 45.8253 183.037 44.172C182.996 43.9653 183.037 43.8 183.161 43.676C183.326 43.5107 183.512 43.428 183.719 43.428C184.05 43.428 184.256 43.614 184.339 43.986C184.546 45.3087 185.124 46.4247 186.075 47.334C187.067 48.2433 188.224 48.698 189.547 48.698C190.291 48.698 191.035 48.5327 191.779 48.202C192.564 47.8713 193.205 47.3133 193.701 46.528C194.238 45.7013 194.507 44.6267 194.507 43.304C194.507 41.816 194.156 40.5347 193.453 39.46C192.792 38.3853 191.862 37.3933 190.663 36.484L189.299 35.43C187.398 33.942 186.034 32.516 185.207 31.152C184.38 29.788 183.967 28.2793 183.967 26.626C183.967 24.5593 184.566 23.0093 185.765 21.976C187.005 20.9427 188.328 20.426 189.733 20.426C190.932 20.426 191.986 20.7773 192.895 21.48C193.804 22.1413 194.507 23.0713 195.003 24.27C195.086 24.4353 195.065 24.6213 194.941 24.828C194.858 25.0347 194.693 25.138 194.445 25.138C194.156 25.138 193.949 25.014 193.825 24.766C192.957 22.7407 191.593 21.728 189.733 21.728C188.452 21.728 187.398 22.162 186.571 23.03C185.744 23.8567 185.331 25.0553 185.331 26.626C185.331 28.1553 185.662 29.478 186.323 30.594C187.026 31.6687 188.286 32.9293 190.105 34.376L191.593 35.554C192.874 36.546 193.908 37.662 194.693 38.902C195.478 40.142 195.871 41.6093 195.871 43.304C195.871 45.3293 195.272 46.962 194.073 48.202C192.874 49.4007 191.366 50 189.547 50ZM199.891 17.078C199.478 17.078 199.271 16.8713 199.271 16.458V10.32C199.271 9.90666 199.478 9.7 199.891 9.7C200.346 9.7 200.573 9.90666 200.573 10.32V16.458C200.573 16.8713 200.346 17.078 199.891 17.078ZM199.891 50C199.478 50 199.271 49.7933 199.271 49.38V21.046C199.271 20.6327 199.478 20.426 199.891 20.426C200.346 20.426 200.573 20.6327 200.573 21.046V49.38C200.573 49.7933 200.346 50 199.891 50Z" fill="white"/>
</g>
<defs>
<filter id="filter0_d_9_96" x="93" y="7.21997" width="111.573" height="51.0901" filterUnits="userSpaceOnUse" color-interpolation-filters="sRGB">
<feFlood flood-opacity="0" result="BackgroundImageFix"/>
<feColorMatrix in="SourceAlpha" type="matrix" values="0 0 0 0 0 0 0 0 0 0 0 0 0 0 0 0 0 0 127 0" result="hardAlpha"/>
<feOffset dy="4"/>
<feGaussianBlur stdDeviation="2"/>
<feComposite in2="hardAlpha" operator="out"/>
<feColorMatrix type="matrix" values="0 0 0 0 0 0 0 0 0 0 0 0 0 0 0 0 0 0 0.25 0"/>
<feBlend mode="normal" in2="BackgroundImageFix" result="effect1_dropShadow_9_96"/>
<feBlend mode="normal" in="SourceGraphic" in2="effect1_dropShadow_9_96" result="shape"/>
</filter>
</defs>
</svg>
