<svg width="132" height="140" viewBox="0 0 132 140" fill="none" xmlns="http://www.w3.org/2000/svg">
<g filter="url(#filter0_d_1_73)">
<circle cx="66" cy="66" r="66" fill="#A4CFEE"/>
<circle cx="66" cy="66" r="51" fill="#A4CFEE" stroke="#147493" stroke-width="2"/>
<path fill-rule="evenodd" clip-rule="evenodd" d="M67 37C50.4313 37 37 50.4313 37 67C37 75.6874 40.6925 83.5122 46.5936 88.9908C47.557 88.0443 48.7954 87 50.997 87C53.4115 87 54.6673 88.2566 55.6723 89.2622L55.7031 89.293C56.6923 90.2826 57.4349 91 58.994 91C60.5549 91 61.2983 90.2823 62.2882 89.2928L62.3189 89.262C63.3247 88.2563 64.5812 87 66.997 87C69.4127 87 70.669 88.2563 71.6746 89.2619L71.7055 89.2928C72.6952 90.2822 73.4385 91 75 91V93C72.5843 93 71.328 91.7437 70.3224 90.7381L70.2915 90.7072C69.3018 89.7178 68.5585 89 66.997 89C65.4355 89 64.6919 89.7179 63.7021 90.7072L63.6709 90.7384C62.6653 91.7439 61.4091 93 58.994 93C56.5802 93 55.3246 91.7436 54.3199 90.7382L54.2886 90.707C53.2995 89.7175 52.5567 89 50.997 89C49.656 89 48.9187 89.53 48.1098 90.3072C53.2671 94.4922 59.8406 97 67 97C80.9928 97 92.748 87.4203 96.0648 74.4614C96.5397 70.8061 95.9829 68.7759 95.0245 67.6473C94.0409 66.4889 92.3951 66 90.0605 66C87.7688 66 85.0767 66.4679 82.2132 66.9656L82.1002 66.9852C79.2418 67.482 76.2271 68 73.5 68C64.8479 68 59 60.9637 59 52.5H61C61 60.0523 66.1361 66 73.5 66C76.0229 66 78.8617 65.518 81.7577 65.0148C81.8305 65.0021 81.9033 64.9895 81.9762 64.9768C84.7555 64.4935 87.5935 64 90.0605 64C92.5794 64 94.9853 64.5111 96.5491 66.3527C96.711 66.5435 96.8614 66.7454 97 66.9588C96.9992 63.3357 96.3409 59.7426 95.0569 56.3544L96.9271 55.6456C98.3019 59.2735 99.0044 63.1215 99 67.0011C98.9999 69.7071 98.664 72.3346 98.0316 74.8442C98.0182 74.9434 98.0042 75.0433 97.9896 75.144L97.9558 75.1391C94.3553 88.8704 81.8608 99 67 99C59.2688 99 52.1779 96.2584 46.6467 91.6943C45.7845 92.3982 44.6683 93 42.997 93C40.5832 93 39.3276 91.7436 38.3229 90.7382L38.2916 90.707C37.3025 89.7175 36.5597 89 35 89V87C37.4145 87 38.6703 88.2566 39.6753 89.2622L39.7061 89.293C40.6953 90.2826 41.4379 91 42.997 91C43.9135 91 44.548 90.7524 45.1161 90.3476C38.8899 84.5093 35 76.209 35 67C35 49.3267 49.3267 35 67 35C78.1948 35 88.0467 40.7494 93.7638 49.4519L92.0922 50.5501C88.8604 45.6305 84.2219 41.7194 78.7495 39.388C77.9678 39.2206 76.546 39 74.5 39C69.5425 39 65.2083 41.6711 62.8596 45.6585L61.1364 44.6435C63.3226 40.9317 67.0129 38.2095 71.3707 37.316C69.9439 37.1078 68.4845 37 67 37ZM35 40H37V42H35V40ZM35 44H37V46H35V44ZM75 48C72.7909 48 71 49.7909 71 52C71 54.2091 72.7909 56 75 56C77.2091 56 79 54.2091 79 52C79 49.7909 77.2091 48 75 48ZM69 52C69 48.6863 71.6863 46 75 46C78.3137 46 81 48.6863 81 52C81 55.3137 78.3137 58 75 58C71.6863 58 69 55.3137 69 52ZM52 47H54V49H52V47ZM44 53H46V55H44V53ZM86 57H88V59H86V57ZM47 65C47 63.8954 47.8954 63 49 63C50.1046 63 51 63.8954 51 65C51 66.1046 50.1046 67 49 67C47.8954 67 47 66.1046 47 65ZM58 72V70H60V72H58ZM82 76C82 73.7909 83.7909 72 86 72C88.2091 72 90 73.7909 90 76C90 78.2091 88.2091 80 86 80C83.7909 80 82 78.2091 82 76ZM74 77V75H76V77H74ZM47 77H49V79H47V77ZM57 84C57 82.8954 57.8954 82 59 82C60.1046 82 61 82.8954 61 84C61 85.1046 60.1046 86 59 86C57.8954 86 57 85.1046 57 84ZM79 86H81V88H79V86ZM35 95H37V97H35V95ZM97 97V95H99V97H97Z" fill="#147493"/>
</g>
<defs>
<filter id="filter0_d_1_73" x="0" y="0" width="132" height="140" filterUnits="userSpaceOnUse" color-interpolation-filters="sRGB">
<feFlood flood-opacity="0" result="BackgroundImageFix"/>
<feColorMatrix in="SourceAlpha" type="matrix" values="0 0 0 0 0 0 0 0 0 0 0 0 0 0 0 0 0 0 127 0" result="hardAlpha"/>
<feOffset dy="8"/>
<feColorMatrix type="matrix" values="0 0 0 0 0.40625 0 0 0 0 0.641447 0 0 0 0 0.8125 0 0 0 1 0"/>
<feBlend mode="normal" in2="BackgroundImageFix" result="effect1_dropShadow_1_73"/>
<feBlend mode="normal" in="SourceGraphic" in2="effect1_dropShadow_1_73" result="shape"/>
</filter>
</defs>
</svg>
